<?xml version="1.0" encoding="iso-8859-1"?>
<!-- Uploaded to: SVG Repo, www.svgrepo.com, Generator: SVG Repo Mixer Tools -->
<svg height="800px" width="800px" version="1.1" id="Layer_1" xmlns="http://www.w3.org/2000/svg" xmlns:xlink="http://www.w3.org/1999/xlink" 
	 viewBox="0 0 447.997 447.997" xml:space="preserve">
<g transform="translate(0 -1020.36)" shape-rendering="auto" image-rendering="auto" color-rendering="auto" color-interpolation="sRGB">
	<path style="fill:#5A3392;" d="M290.185,1020.373c-53.932,0-108.219,19.478-149.875,52.657
		c-41.681,33.197-70.875,81.051-70.875,136.656c0,29.48,12.514,56.145,24.219,79.031c1.892,3.701,2.666,13.98,1.312,17.846
		c-0.032,0-2.952,8.014-9.344,15.938c-9.875,12.242-25.105,23.244-38.5,31.279l-32.125,19.252
		c-17.153,10.293-20.176,34.539-6.031,48.686l37.688,37.656c14.153,14.152,38.359,11.127,48.656-6.031l19.375-32.125
		c11.46-19.102,29.675-42.252,47.594-48.531c1.043-0.367,5.4-0.688,10.156,0.16c4.757,0.816,10.025,2.547,14.281,4.719
		c21.14,10.742,45.277,21.5,71.938,21.5c7.055,0,13.986-0.432,20.781-1.217l-16.031-16.094l11.406-11.375l24.094,24.125
		c88.293-20.346,149.094-106.279,149.094-200.469c0-51.889-6.964-93.898-37.344-126.969
		c-30.169-32.843-82.616-46.227-120.344-46.657c-0.043,0-0.085,0-0.128,0L290.185,1020.373z"/>
	<path style="fill:#29A3EC;" d="M290.199,1036.437c33.875,0.368,83.504,14.056,108.656,41.437
		c26.683,29.047,33.094,65.639,33.094,116.125c0,84.396-52.166,160.619-128.5,182.5l-210.75-210.781
		c10.247-31.395,30.77-58.818,57.562-80.154C188.979,1054.725,240.143,1036.438,290.199,1036.437L290.199,1036.437z"/>
	<path style="fill:#FFFFFF;" d="M88.074,1183.78l196.938,196.813c-8.567,1.393-17.304,2.377-26.344,2.377
		c-22.284,0-44.045-9.275-64.594-19.719c-5.958-3.041-12.661-5.195-19.031-6.281c-6.37-1.088-12.282-1.424-18.063,0.623
		c-25.457,8.922-43.906,35.061-56.094,55.375l-19.25,32.25c-5.004,8.34-16.87,9.691-23.75,2.813l-37.563-37.531
		c-6.883-6.883-5.504-18.74,2.843-23.75l32.25-19.25c14.256-8.553,30.837-20.199,42.75-34.969
		c7.387-9.156,9.906-16.527,10.625-18.438c0.311-0.4,0.583-0.828,0.813-1.279c0.141-0.275,0.266-0.559,0.375-0.848
		c0.044-0.08,0.086-0.16,0.127-0.24c3.44-9.816,2.584-21.164-2.125-30.375c-11.494-22.477-22.562-46.854-22.562-71.688
		c0-8.885,1.081-17.475,2.656-25.906L88.074,1183.78z"/>
	<path style="fill:#3CDEF6;" d="M282.426,1040.432c-48.365,0-97.778,17.672-135.188,47.469
		c-25.887,20.617-45.724,47.133-55.625,77.469l204.062,203.281c73.755-21.143,123.719-94.422,123.719-175.969
		c0-48.781-6.187-84.121-31.969-112.188C363.124,1054.04,315.157,1040.796,282.426,1040.432z"/>
	<g>
		<path style="fill:#FFFFFF;" d="M312.301,1053.214c4.418-0.086,8.069,3.426,8.155,7.844s-3.426,8.068-7.844,8.154
			c-0.386,0.008-0.772-0.012-1.154-0.061c-27.625-1.393-50.463,3.344-76.156,14.531c-3.997,1.883-8.764,0.17-10.648-3.828
			c-1.883-3.998-0.169-8.764,3.828-10.646c0.136-0.064,0.274-0.125,0.413-0.182C256.328,1057.083,282.367,1051.702,312.301,1053.214
			L312.301,1053.214z"/>
		<path style="fill:#FFFFFF;" d="M207.988,1084.37c4.418,0,8,3.582,8,8l0,0c0,4.418-3.582,8-8,8h0c-4.418,0-8-3.582-8-8
			S203.57,1084.37,207.988,1084.37z"/>
	</g>
	<path style="fill:#EBFEFF;" d="M92.83,1194.018l181.925,181.809c-7.914,1.297-15.985,2.195-24.336,2.195
		c-20.585,0-40.687-8.568-59.67-18.217c-5.504-2.811-11.696-4.795-17.58-5.805c-5.885-1.008-11.346-1.313-16.686,0.607
		c-23.516,8.242-40.559,32.389-51.817,51.154l-17.783,29.793c-4.623,7.703-15.584,8.951-21.939,2.6l-34.699-34.67
		c-6.358-6.359-5.084-17.313,2.626-21.939l29.792-17.783c13.169-7.902,28.486-18.66,39.491-32.305
		c6.823-8.459,9.151-15.268,9.815-17.031c0.287-0.369,0.538-0.766,0.75-1.184c0.13-0.254,0.245-0.516,0.345-0.783
		c0.042-0.08,0.082-0.16,0.121-0.24c3.177-9.068,2.387-19.553-1.963-28.059c-10.618-20.764-20.842-43.283-20.842-66.223
		c0-8.207,0.999-16.145,2.453-23.932L92.83,1194.018z"/>
</g>
</svg>